<?xml version="1.0" encoding="utf-8"?>
<!-- Generator: Adobe Illustrator 16.0.0, SVG Export Plug-In . SVG Version: 6.00 Build 0)  -->
<!DOCTYPE svg PUBLIC "-//W3C//DTD SVG 1.1//EN" "http://www.w3.org/Graphics/SVG/1.1/DTD/svg11.dtd">
<svg version="1.1" id="Layer_1" xmlns="http://www.w3.org/2000/svg" xmlns:xlink="http://www.w3.org/1999/xlink" x="0px" y="0px"
	 width="539.033px" height="95.324px" viewBox="0 0 539.033 95.324" enable-background="new 0 0 539.033 95.324"
	 xml:space="preserve">
<path fill="#FFFFFF" d="M132.08,22.638c-1.638-4.109-2.756-4.922-5.364-5.654c-1.116-0.297-2.383-0.297-2.83-0.297
	c-0.446,0-0.595-0.219-0.595-0.513c0-0.44,0.743-0.513,1.936-0.513c3.576,0,7.482,0,8.376,0c0.745,0,4.063,0,6.893,0
	c1.339,0,2.011,0.145,2.011,0.513s-0.225,0.513-0.744,0.513c-0.821,0-2.16,0.074-2.832,0.371c-0.819,0.365-0.968,0.952-0.968,1.471
	c0,0.658,0.669,2.641,1.491,4.7l15.192,39.015c4.32-9.845,14.302-35.489,15.939-40.78c0.372-1.099,0.669-2.13,0.669-2.79
	c0-0.589-0.223-1.324-0.968-1.689c-0.893-0.297-2.011-0.297-2.828-0.297c-0.449,0-0.821-0.07-0.821-0.44
	c0-0.44,0.446-0.585,1.639-0.585c2.979,0,6.406,0.219,7.3,0.219c0.445,0,3.648-0.219,5.81-0.219c0.819,0,1.267,0.145,1.267,0.513
	s-0.299,0.513-0.895,0.513c-0.521,0-2.16,0-3.575,0.885c-0.967,0.66-2.085,1.908-4.097,6.906
	c-0.818,2.058-4.543,10.874-8.341,19.912c-4.544,10.729-7.896,18.662-9.61,22.264c-2.085,4.408-7.842,4.84-8.588,4.84
	c-0.894,0-2.285-2.367-0.148-5.606L132.08,22.638z"/>
<g>
	<path fill="#FFFFFF" d="M178.553,44.704c0-12.461,9.077-30.074,30.306-30.074c17.308,0,30.229,10.922,30.229,28.844
		c0,17.23-12.153,31.461-30.691,31.461C187.322,74.935,178.553,58.55,178.553,44.704z M231.704,45.628
		c0-18.461-11.229-28.383-23.383-28.383c-12.846,0-22.461,8.461-22.461,25.307c0,17.922,10.769,29.459,24.614,29.459
		C217.397,72.011,231.704,68.011,231.704,45.628z"/>
	<path fill="#FFFFFF" d="M258.851,66.628c-7.461-6.693-9.309-15.461-9.309-22.77c0-5.152,1.77-14.152,8.615-20.999
		c4.615-4.614,11.615-8.229,23.461-8.229c3.076,0,7.385,0.23,11.152,0.922c2.924,0.539,5.309,0.77,8.154,1.154
		c0.539,0.076,0.691,0.385,0.691,0.846c0,0.615-0.23,1.539-0.383,4.308c-0.154,2.538-0.154,6.769-0.232,7.923
		c-0.076,1.154-0.23,1.615-0.691,1.615c-0.539,0-0.615-0.538-0.615-1.615c0-3-1.23-6.153-3.23-7.846
		c-2.693-2.308-8.615-4.385-15.385-4.385c-10.23,0-14.998,3-17.691,5.615c-5.615,5.385-6.922,12.23-6.922,20.076
		c0,14.691,11.307,28.152,27.768,28.152c5.77,0,10.307-0.691,13.385-3.846c1.615-1.691,2.615-5.076,2.846-6.461
		c0.152-0.846,0.307-1.154,0.77-1.154c0.383,0,0.537,0.539,0.537,1.154c0,0.539-0.922,7.23-1.691,9.846
		c-0.463,1.461-0.615,1.615-2,2.23c-3.078,1.23-8.924,1.77-13.846,1.77C272.695,74.935,264.927,72.089,258.851,66.628z"/>
	<path fill="#FFFFFF" d="M358.226,40.089c0.23,0,0.461-0.076,0.461-0.461v-1.615c0-12,0-14.153-0.152-16.615
		c-0.154-2.615-0.77-3.846-3.309-4.384c-0.615-0.153-1.922-0.231-2.615-0.231c-0.307,0-0.615-0.153-0.615-0.461
		c0-0.461,0.385-0.615,1.23-0.615c3.463,0,8.309,0.23,8.693,0.23c0.383,0,5.23-0.23,7.537-0.23c0.846,0,1.23,0.154,1.23,0.615
		c0,0.308-0.307,0.461-0.615,0.461c-0.539,0-1,0.078-1.922,0.231c-2.078,0.385-2.693,1.692-2.848,4.384
		c-0.152,2.462-0.152,4.615-0.152,16.615v13.539c0,7.383,0,13.459,0.385,16.691c0.23,2.23,0.691,3.922,2.998,4.23
		c1.078,0.152,2.77,0.307,3.463,0.307c0.461,0,0.615,0.23,0.615,0.461c0,0.385-0.385,0.617-1.23,0.617
		c-4.23,0-9.078-0.232-9.461-0.232c-0.385,0-5.23,0.232-7.539,0.232c-0.846,0-1.23-0.154-1.23-0.617c0-0.23,0.154-0.461,0.615-0.461
		c0.691,0,1.615-0.154,2.307-0.307c1.539-0.309,1.924-2,2.232-4.23c0.383-3.232,0.383-9.309,0.383-16.691v-8.078
		c0-0.307-0.23-0.461-0.461-0.461h-32.613c-0.23,0-0.461,0.076-0.461,0.461v8.078c0,7.383,0,13.459,0.383,16.691
		c0.232,2.23,0.693,3.922,3,4.23c1.078,0.152,2.77,0.307,3.463,0.307c0.461,0,0.615,0.23,0.615,0.461
		c0,0.385-0.385,0.617-1.23,0.617c-4.23,0-9.078-0.232-9.463-0.232c-0.383,0-5.23,0.232-7.537,0.232c-0.846,0-1.23-0.154-1.23-0.617
		c0-0.23,0.154-0.461,0.615-0.461c0.691,0,1.615-0.154,2.307-0.307c1.539-0.309,1.924-2,2.23-4.23
		c0.385-3.232,0.385-9.309,0.385-16.691V38.013c0-12,0-14.153-0.152-16.615c-0.154-2.615-0.77-3.846-3.309-4.384
		c-0.615-0.153-1.922-0.231-2.615-0.231c-0.307,0-0.615-0.153-0.615-0.461c0-0.461,0.385-0.615,1.23-0.615
		c3.461,0,8.309,0.23,8.691,0.23c0.385,0,5.232-0.23,7.539-0.23c0.846,0,1.23,0.154,1.23,0.615c0,0.308-0.307,0.461-0.615,0.461
		c-0.539,0-1,0.078-1.924,0.231c-2.076,0.385-2.691,1.692-2.846,4.384c-0.152,2.462-0.152,4.615-0.152,16.615v1.615
		c0,0.385,0.23,0.461,0.461,0.461H358.226z"/>
	<path fill="#FFFFFF" d="M395.912,51.167c-0.385,0-0.617,0.23-0.77,0.615l-4.615,13.613c-0.693,1.924-1.078,3.77-1.078,5.154
		c0,1.539,1.463,2.23,2.77,2.23c0.23,0,0.461,0,0.693,0c0.768,0,1,0.154,1,0.461c0,0.463-0.693,0.617-1.385,0.617
		c-1.848,0-4.924-0.232-5.77-0.232s-5.076,0.232-8.691,0.232c-1,0-1.463-0.154-1.463-0.617c0-0.307,0.385-0.461,1.078-0.461
		c0.537,0,1.23-0.076,1.846-0.154c3.539-0.461,5.076-3.383,6.461-7.23l17.461-47.767c0.924-2.538,1.23-2.999,1.691-2.999
		c0.463,0,0.77,0.384,1.693,2.769c1.154,2.923,13.23,34.69,17.922,46.382c2.77,6.846,5,8.078,6.615,8.539
		c1.154,0.385,2.385,0.461,3,0.461c0.461,0,0.846,0.078,0.846,0.461c0,0.463-0.691,0.617-1.539,0.617c-1.152,0-6.768,0-12.076-0.154
		c-1.461-0.078-2.307-0.078-2.307-0.539c0-0.307,0.23-0.461,0.539-0.539c0.461-0.152,0.922-0.846,0.461-2.076l-7.154-18.922
		c-0.154-0.309-0.307-0.461-0.691-0.461H395.912z M411.449,48.397c0.385,0,0.385-0.23,0.307-0.539l-7.307-20.768
		c-0.385-1.154-0.77-1.154-1.154,0l-6.768,20.768c-0.154,0.385,0,0.539,0.23,0.539H411.449z"/>
	<path fill="#FFFFFF" d="M505.363,63.935c0.307,2.77,0.846,7.076,4.152,8.154c2.23,0.691,4,0.691,4.77,0.691
		c0.385,0,0.846,0.078,0.846,0.461c0,0.463-0.23,0.617-1.152,0.617c-1.693,0-10.461-0.232-13.309-0.463
		c-1.768-0.154-2.152-0.385-2.152-0.77c0-0.307,0.152-0.385,0.537-0.537c0.539-0.23,0.463-1.385,0.309-2.77l-3.693-40.152
		l-19.074,40.459c-1.617,3.385-1.848,4.078-2.539,4.078c-0.539,0-0.924-0.77-2.385-3.539c-2-3.77-8.615-17.076-9-17.846
		c-0.691-1.385-9.537-20.383-10.383-22.46l-3.154,36.229c-0.078,1.23-0.154,2.307-0.154,3.615c0,1.922,0.924,2.537,2.076,2.77
		c1.309,0.307,2.309,0.307,2.77,0.307c0.463,0,0.77,0.154,0.77,0.385c0,0.539-0.385,0.693-1.154,0.693
		c-2.846,0-6.768-0.232-7.383-0.232c-0.693,0-4.385,0.232-6.463,0.232c-0.768,0-1.307-0.078-1.307-0.617
		c0-0.307,0.385-0.461,0.77-0.461c0.615,0,1.152,0,2.307-0.23c2.539-0.461,2.693-3.23,3.078-6.385l5.537-49.998
		c0.076-0.846,0.385-1.537,0.846-1.537c0.463,0,0.77,0.307,1.154,1.152l23.537,48.383l22.615-48.305
		c0.307-0.693,0.615-1.23,1.152-1.23c0.539,0,0.77,0.615,0.924,2.076L505.363,63.935z"/>
</g>
<path fill="#FFFFFF" d="M13.521,67.966c0.002,1.838,1.228,3.328,2.738,3.326l62.365-0.059l0.012,17.82
	c0.002,0.896,0.396,1.725,1.036,2.168s1.429,0.436,2.062-0.019l14.08-10.149l14.096,10.121c0.323,0.23,0.685,0.348,1.044,0.348
	c0.352,0,0.7-0.112,1.018-0.332c0.64-0.443,1.034-1.271,1.032-2.167l-0.01-17.821l3.764-0.004c0.002,0,0.002,0,0.002,0l1.922-0.002
	c6.085-0.006,21.906,0.299,27.991,0.354c4.148,0.039-2.234-21.433-4.242-28.422c-4.221-14.689-5.584-24.077-16.294-27.377
	L17.261,15.847c-1.511,0-2.734,1.492-2.734,3.33c0.001,1.838,1.228,3.327,2.739,3.327l101.385-0.095
	c9.547-0.011,17.319,9.431,17.328,21.045c0.004,5.626-1.797,10.918-5.065,14.904c-3.265,3.982-7.61,6.176-12.237,6.181l-5.686,0.005
	l-0.003-4.942l8.635-0.009c1.068-0.002,1.933-1.119,1.933-2.498c0-1.378-0.866-2.496-1.938-2.494l-8.634,0.008l-0.003-4.091
	l11.767-0.013c1.068,0,1.935-1.119,1.935-2.498c0-1.377-0.867-2.494-1.938-2.494l-11.768,0.012l-0.002-4.092l11.768-0.012
	c1.068,0,1.937-1.119,1.937-2.497c-0.004-1.379-0.87-2.495-1.939-2.495l-11.768,0.012l-0.001-4.092l8.47-0.008
	c1.159,0,2.099-1.121,2.099-2.498c0-1.379-0.94-2.495-2.103-2.495l-94.357,0.089c-1.16,0.001-2.101,1.119-2.1,2.498
	c0.001,1.377,0.943,2.496,2.104,2.494L78.6,32.38l0.003,4.092l-51.902,0.051c-0.95,0-1.718,1.117-1.717,2.496
	c0,1.377,0.77,2.496,1.72,2.496l51.903-0.051l0.002,4.092l-51.901,0.051c-0.951,0-1.719,1.117-1.718,2.495s0.771,2.497,1.721,2.497
	l51.902-0.051l0.001,4.092L26.713,54.69c-0.95,0-1.718,1.118-1.717,2.495c0.001,1.382,0.771,2.497,1.721,2.497l51.901-0.05
	l0.003,4.942l-62.366,0.059C14.745,64.636,13.52,66.128,13.521,67.966z M82.728,71.229l-0.003-6.658l-0.003-4.941l-0.003-4.993
	l-0.003-4.092l-0.002-4.993l-0.003-4.091l-0.001-4.993l-0.003-4.092l26.162-0.023l0.003,4.092l0.002,4.992l0.003,4.092l0.001,4.992
	l0.003,4.092l0.003,4.992l0.004,4.943l0.003,6.657l0.01,13.445l-12.044-8.647c-0.647-0.461-1.444-0.461-2.09,0.004l-12.03,8.668
	L82.728,71.229z"/>
</svg>
