<svg xmlns="http://www.w3.org/2000/svg" width="539.03" height="95.32" viewBox="0 0 539.03 95.32" xml:space="preserve"><path d="M133.096 21.811c-1.638-4.109-2.756-4.922-5.364-5.654-1.116-.297-2.383-.297-2.83-.297-.446 0-.595-.219-.595-.513 0-.44.743-.513 1.936-.513h15.269c1.339 0 2.011.145 2.011.513s-.225.513-.744.513c-.821 0-2.16.074-2.832.371-.819.365-.968.952-.968 1.471 0 .658.669 2.641 1.491 4.7l15.192 39.015c4.32-9.845 14.302-35.49 15.939-40.781.372-1.099.669-2.13.669-2.79 0-.589-.223-1.324-.968-1.689-.893-.297-2.011-.297-2.828-.297-.449 0-.821-.07-.821-.44 0-.44.446-.585 1.639-.585 2.979 0 6.406.219 7.3.219.445 0 3.648-.219 5.81-.219.819 0 1.267.145 1.267.513s-.299.513-.895.513c-.521 0-2.16 0-3.575.885-.967.66-2.085 1.908-4.097 6.906-.818 2.058-4.543 10.874-8.341 19.912-4.544 10.728-7.896 18.663-9.61 22.264-2.085 4.408-7.842 4.84-8.588 4.84-.894 0-2.285-2.367-.148-5.607l-15.319-43.25zm46.473 22.066c0-12.461 9.077-30.074 30.306-30.074 17.308 0 30.229 10.922 30.229 28.844 0 17.231-12.153 31.461-30.691 31.461-21.075 0-29.844-16.384-29.844-30.231zm53.151.924c0-18.461-11.229-28.383-23.383-28.383-12.846 0-22.461 8.461-22.461 25.307 0 17.922 10.769 29.459 24.614 29.459 6.923.001 21.23-3.999 21.23-26.383zm27.147 21.001c-7.461-6.693-9.309-15.462-9.309-22.77 0-5.152 1.77-14.152 8.615-20.999 4.616-4.614 11.616-8.229 23.462-8.229 3.076 0 7.385.23 11.152.922 2.924.539 5.309.77 8.154 1.154.539.076.691.385.691.846 0 .615-.23 1.539-.383 4.308-.154 2.538-.154 6.769-.232 7.923-.076 1.154-.23 1.615-.691 1.615-.539 0-.615-.538-.615-1.615 0-3-1.23-6.153-3.23-7.846-2.693-2.308-8.615-4.385-15.385-4.385-10.231 0-14.999 3-17.692 5.615-5.616 5.385-6.922 12.23-6.922 20.076 0 14.692 11.307 28.153 27.769 28.153 5.77 0 10.307-.691 13.385-3.846 1.615-1.691 2.615-5.076 2.846-6.461.152-.846.307-1.154.77-1.154.383 0 .537.539.537 1.154 0 .539-.922 7.23-1.691 9.846-.463 1.461-.615 1.615-2 2.23-3.078 1.23-8.924 1.77-13.846 1.77-11.541-.001-19.308-2.846-25.385-8.307zm99.376-26.54c.23 0 .461-.076.461-.461v-1.615c0-12 0-14.153-.152-16.615-.154-2.615-.77-3.846-3.309-4.384-.615-.153-1.922-.231-2.615-.231-.307 0-.615-.153-.615-.461 0-.461.385-.615 1.23-.615 3.463 0 8.309.23 8.693.23.383 0 5.23-.23 7.537-.23.846 0 1.23.154 1.23.615 0 .308-.307.461-.615.461-.539 0-1 .078-1.922.231-2.078.385-2.693 1.692-2.848 4.384-.152 2.462-.152 4.615-.152 16.615v13.539c0 7.384 0 13.46.385 16.692.23 2.23.691 3.922 2.998 4.23 1.078.152 2.77.307 3.463.307.461 0 .615.23.615.461 0 .385-.385.617-1.23.617-4.23 0-9.078-.232-9.461-.232-.385 0-5.23.232-7.539.232-.846 0-1.23-.154-1.23-.617 0-.23.154-.461.615-.461.691 0 1.615-.154 2.307-.307 1.539-.309 1.924-2 2.232-4.23.383-3.232.383-9.309.383-16.692v-8.078c0-.307-.23-.461-.461-.461H326.63c-.23 0-.461.076-.461.461v8.078c0 7.384 0 13.46.383 16.692.232 2.23.693 3.922 3 4.23 1.078.152 2.77.307 3.463.307.461 0 .615.23.615.461 0 .385-.385.617-1.23.617-4.23 0-9.078-.232-9.463-.232-.383 0-5.23.232-7.537.232-.846 0-1.23-.154-1.23-.617 0-.23.154-.461.615-.461.691 0 1.615-.154 2.307-.307 1.539-.309 1.924-2 2.23-4.23.385-3.232.385-9.309.385-16.692V37.186c0-12 0-14.153-.152-16.615-.154-2.615-.77-3.846-3.309-4.384-.615-.153-1.922-.231-2.615-.231-.307 0-.615-.153-.615-.461 0-.461.385-.615 1.23-.615 3.461 0 8.309.23 8.691.23.385 0 5.232-.23 7.539-.23.846 0 1.23.154 1.23.615 0 .308-.307.461-.615.461-.539 0-1 .078-1.924.231-2.076.385-2.691 1.692-2.846 4.384-.152 2.462-.152 4.615-.152 16.615v1.615c0 .385.23.461.461.461h32.613zm37.686 11.078c-.385 0-.617.23-.77.615l-4.615 13.614c-.693 1.924-1.078 3.77-1.078 5.154 0 1.539 1.463 2.23 2.77 2.23h.693c.768 0 1 .154 1 .461 0 .463-.693.617-1.385.617-1.848 0-4.924-.232-5.77-.232s-5.076.232-8.691.232c-1 0-1.463-.154-1.463-.617 0-.307.385-.461 1.078-.461.537 0 1.23-.076 1.846-.154 3.539-.461 5.076-3.383 6.461-7.23l17.461-47.767c.924-2.538 1.23-2.999 1.691-2.999.463 0 .77.384 1.693 2.769 1.154 2.923 13.23 34.69 17.922 46.382 2.77 6.846 5 8.078 6.615 8.539 1.154.385 2.385.461 3 .461.461 0 .846.078.846.461 0 .463-.691.617-1.539.617-1.152 0-6.768 0-12.076-.154-1.461-.078-2.307-.078-2.307-.539 0-.307.23-.461.539-.539.461-.152.922-.846.461-2.076l-7.154-18.923c-.154-.309-.307-.461-.691-.461h-16.537zm15.537-2.769c.385 0 .385-.23.307-.539l-7.307-20.768c-.385-1.154-.77-1.154-1.154 0l-6.768 20.768c-.154.385 0 .539.23.539h14.692zm93.914 15.537c.307 2.77.846 7.076 4.152 8.154 2.23.691 4 .691 4.77.691.385 0 .846.078.846.461 0 .463-.23.617-1.152.617-1.693 0-10.461-.232-13.309-.463-1.768-.154-2.152-.385-2.152-.77 0-.307.152-.385.537-.537.539-.23.463-1.385.309-2.77l-3.693-40.153L477.612 68.8c-1.617 3.385-1.848 4.078-2.539 4.078-.539 0-.924-.77-2.385-3.539-2-3.77-8.615-17.077-9-17.847-.691-1.385-9.537-20.382-10.383-22.459l-3.154 36.23c-.078 1.23-.154 2.307-.154 3.615 0 1.922.924 2.537 2.076 2.77 1.309.307 2.309.307 2.77.307.463 0 .77.154.77.385 0 .539-.385.693-1.154.693-2.846 0-6.768-.232-7.383-.232-.693 0-4.385.232-6.463.232-.768 0-1.307-.078-1.307-.617 0-.307.385-.461.77-.461.615 0 1.152 0 2.307-.23 2.539-.461 2.693-3.23 3.078-6.385l5.537-49.999c.076-.846.385-1.537.846-1.537.463 0 .77.307 1.154 1.152l23.537 48.383 22.615-48.305c.307-.693.615-1.23 1.152-1.23.539 0 .77.615.924 2.076l5.154 47.228z"/><path d="M14.538 67.14c.002 1.838 1.228 3.328 2.738 3.326l62.365-.059.012 17.82c.002.896.396 1.725 1.036 2.168s1.429.436 2.062-.02l14.08-10.148 14.096 10.121a1.8 1.8 0 0 0 1.044.348c.352 0 .7-.113 1.018-.332.64-.443 1.034-1.271 1.032-2.168l-.01-17.82 3.764-.004h.002l1.922-.002c6.085-.006 21.906.299 27.991.354 4.148.039-2.234-21.433-4.242-28.422-4.221-14.689-5.584-24.077-16.294-27.377l-108.877.095c-1.511 0-2.734 1.492-2.734 3.33.001 1.838 1.228 3.327 2.739 3.327l101.385-.095c9.547-.011 17.319 9.431 17.328 21.045.004 5.626-1.797 10.917-5.065 14.905-3.265 3.982-7.61 6.176-12.237 6.18l-5.686.006-.003-4.943 8.635-.008c1.068-.002 1.933-1.119 1.933-2.498 0-1.378-.866-2.497-1.938-2.495l-8.634.007-.003-4.09 11.767-.014c1.068 0 1.935-1.119 1.935-2.498 0-1.377-.867-2.494-1.938-2.494l-11.768.012-.002-4.092 11.768-.012c1.068 0 1.937-1.119 1.937-2.497-.004-1.379-.87-2.495-1.939-2.495l-11.768.012-.001-4.092 8.47-.008c1.159 0 2.099-1.121 2.099-2.498 0-1.379-.94-2.495-2.103-2.495l-94.359.09c-1.16.001-2.101 1.119-2.1 2.498.001 1.377.943 2.496 2.104 2.494l51.518-.049.003 4.092-51.902.051c-.95 0-1.718 1.117-1.717 2.496 0 1.377.77 2.496 1.72 2.496l51.903-.051.002 4.092-51.902.051c-.951 0-1.719 1.117-1.718 2.495s.771 2.497 1.721 2.497l51.902-.051.001 4.092-51.901.051c-.95 0-1.718 1.119-1.717 2.495.001 1.383.771 2.498 1.721 2.498l51.901-.051.003 4.943-62.366.059c-1.51.002-2.735 1.494-2.733 3.332zm69.206 3.263-.003-6.658-.003-4.941-.003-4.993-.003-4.092-.002-4.994-.003-4.091-.001-4.993-.003-4.092 26.162-.023.003 4.092.002 4.992.003 4.092.001 4.992.003 4.092.003 4.993.004 4.943.003 6.656.01 13.445-12.044-8.646a1.746 1.746 0 0 0-2.09.004l-12.03 8.668-.009-13.446z"/></svg>